# xmcd
#
# Track frame offsets:
#	150
#	13606
#	24045
#	34311
#	37314
#	48343
#	60989
#	77038
#	92395
#	105830
#	116198
#	126186
#	138682
#	150863
#	161716
#	171235
#	184816
#
# Disc length: 2598 seconds
#
# Revision: 3
# Processed by: cddbd v1.4PL0 Copyright (c) Steve Scherf et al.
# Submitted via: EasyCDDAExtractor 6.0.0.1
#
DISCID=d20a2411
DTITLE=Braz Da Viola - Florescê(dimas som)
DYEAR=2001
DGENRE=Acoustic
TTITLE0=Inhumalôca-Braz Da Viola
TTITLE1=Mocinha-Braz Da Viola
TTITLE2=Sapo Cururú-Braz Da Viola
TTITLE3=Florescê-Braz Da Viola
TTITLE4=Riacho do Freire-Braz Da Viola
TTITLE5=Frevo-Braz Da Viola
TTITLE6=Querubins-Braz Da Viola
TTITLE7=Viola Ética-Braz Da Viola
TTITLE8=Recortado Xadrez-Braz Da Viola
TTITLE9=No Arraiá do Busca-pé-Braz Da Viola
TTITLE10=Piolho de Cobra-Braz Da Viola
TTITLE11=Arapuá-Braz Da Viola-Braz Da Viola
TTITLE12=Semente de Flor-Braz Da Viola
TTITLE13=Trama-Braz Da Viola
TTITLE14=Pererê Pererê-Braz Da Viola
TTITLE15=Maria Bonita-Braz Da Viola
TTITLE16=Big Bang-Braz Da Viola-Braz Da Viola
EXTD=YEAR: 2001 ID3G:  99
EXTT0=
EXTT1=
EXTT2=
EXTT3=
EXTT4=
EXTT5=
EXTT6=
EXTT7=
EXTT8=
EXTT9=
EXTT10=
EXTT11=
EXTT12=
EXTT13=
EXTT14=
EXTT15=
EXTT16=
PLAYORDER=
